<?xml version="1.0" encoding="UTF-8"?>
<svg width="530px" height="530px" viewBox="0 0 530 530" version="1.1" xmlns="http://www.w3.org/2000/svg" xmlns:xlink="http://www.w3.org/1999/xlink">
    <title>渐变@1x</title>
    <defs>
        <linearGradient x1="50%" y1="0%" x2="50%" y2="100%" id="linearGradient-1">
            <stop stop-color="#00A8F8" offset="0%"></stop>
            <stop stop-color="#006FEE" offset="100%"></stop>
        </linearGradient>
    </defs>
    <g id="页面-1" stroke="none" stroke-width="1" fill="none" fill-rule="evenodd">
        <g id="渐变" transform="translate(-0.0002, 0)">
            <rect id="矩形" x="0" y="0" width="530" height="530"></rect>
            <path d="M241.658887,282.852926 C277.345411,292.981923 310.659298,317.933232 335.822437,362.350144 C362.009418,408.583951 389.068266,454.323515 415.899148,500.192143 C418.054817,503.974009 425.844622,518.355103 423.745944,525.249504 C421.614271,531.598636 414.591349,530.276984 410.136033,528.683198 C339.933806,498.135128 102.598228,394.870186 52.9928402,373.285538 C20.0678929,358.948465 53.0088378,340.074154 53.0088378,340.074154 C79.1938194,324.723582 105.367803,309.347997 131.977719,294.785813 C143.737914,288.351639 156.908893,283.430211 170.036879,280.765897 C193.845225,275.930511 218.261478,276.213651 241.658887,282.852926 Z M507.735455,110.177043 C504.981438,138.187661 496.806191,221.321635 488.538504,305.395519 L487.584433,315.09744 C487.438172,316.584762 487.291947,318.071726 487.145786,319.558032 L486.707527,324.014674 C479.699436,395.279764 472.908475,464.337043 469.598308,498.001362 C468.822427,502.672667 466.557774,509.455013 459.977784,508.228408 C452.938864,506.707657 444.173209,492.900846 441.920555,489.175008 C414.933696,443.399426 388.169804,397.484776 360.550042,352.094384 C334.018114,308.48287 328.445969,267.218514 336.969661,231.093693 C342.561803,207.408008 354.197017,185.927412 370.002592,167.467305 C378.718254,157.289284 389.424611,148.169785 400.764871,141.021259 C426.428932,124.846279 452.589918,109.447683 478.727906,94.0260752 C478.731906,94.0290766 511.241917,74.4184024 507.735455,110.177043 Z M146.30962,44.2215058 C183.97384,97.5538155 192.041602,152.429887 175.950071,198.462595 C164.002905,232.651461 136.810078,258.780351 102.382361,282.12987 C100.852536,283.167361 99.2839867,284.223522 97.6855104,285.291404 L96.3082639,286.209441 C93.9990147,287.745281 91.6337062,289.301034 89.2380605,290.856387 L87.9284906,291.7046 C86.1787982,292.835172 84.4155334,293.96358 82.6485906,295.08201 L81.3228485,295.91884 C64.3042769,306.631009 47.1741451,316.237863 38.7551252,317.772453 C16.6485177,321.80144 22.0126945,304.015666 24.159365,298.163779 C40.8578025,256.141049 57.5562399,214.103311 74.3016701,171.961522 C89.6863092,133.229415 122.450281,50.7657342 123.37314,48.4455896 C127.634486,37.3080953 135.508277,30.99298 146.30962,44.2215058 Z M201.127607,2.64569582 C203.582231,3.09291644 290.832841,18.9937606 331.810553,26.4654465 C376.39871,34.5884537 420.873885,42.6984545 465.336062,50.7994508 C471.433126,52.0780816 490.507199,57.0895538 474.218698,73.5756867 C464.886131,83.0213464 431.13831,99.4904708 410.292509,108.678003 C372.23135,125.454279 335.703955,134.745863 300.398373,126.764926 C252.859668,116.023627 210.629149,80.0969037 185.392022,19.8711934 C179.904864,3.69521356 189.431402,0.360568527 201.127607,2.64569582 Z" id="形状结合" fill="url(#linearGradient-1)"></path>
        </g>
    </g>
</svg>